/* XPM */
static char * collectible_xpm[] = {
"32 32 141 2",
"  	c None",
". 	c #FFE751",
"+ 	c #9DC142",
"@ 	c #9EC141",
"# 	c #9CBE43",
"$ 	c #9CBE42",
"% 	c #9EC142",
"& 	c #CADF66",
"* 	c #C8DF65",
"= 	c #C7DF65",
"- 	c #C9DE66",
"; 	c #C8DD66",
"> 	c #A0C143",
", 	c #9DBF42",
"' 	c #92B839",
") 	c #9FC243",
"! 	c #9FC143",
"~ 	c #A0C244",
"{ 	c #86A635",
"] 	c #A2C545",
"^ 	c #C6DC66",
"/ 	c #C6DD65",
"( 	c #C3DA60",
"_ 	c #96B93F",
": 	c #7C982F",
"< 	c #A1C345",
"[ 	c #84A434",
"} 	c #A5C847",
"| 	c #A7CB47",
"1 	c #A6CA46",
"2 	c #D0E768",
"3 	c #9ABD3F",
"4 	c #82A031",
"5 	c #85A431",
"6 	c #85A433",
"7 	c #82A030",
"8 	c #89A937",
"9 	c #829E31",
"0 	c #88A535",
"a 	c #1A0B14",
"b 	c #331B20",
"c 	c #341C1D",
"d 	c #79922F",
"e 	c #331A1F",
"f 	c #331A20",
"g 	c #7B5130",
"h 	c #321A1F",
"i 	c #83A42E",
"j 	c #341A20",
"k 	c #33181C",
"l 	c #9A6C3C",
"m 	c #986B3B",
"n 	c #956739",
"o 	c #593426",
"p 	c #9A6D3D",
"q 	c #754B2E",
"r 	c #764B2D",
"s 	c #5C3627",
"t 	c #603B27",
"u 	c #482720",
"v 	c #3C1E1B",
"w 	c #754B2D",
"x 	c #744A2D",
"y 	c #754B2C",
"z 	c #75492C",
"A 	c #5A3526",
"B 	c #351A20",
"C 	c #5C3827",
"D 	c #4F2C20",
"E 	c #9D703E",
"F 	c #744B2D",
"G 	c #593526",
"H 	c #492922",
"I 	c #542F21",
"J 	c #9C6E3D",
"K 	c #533024",
"L 	c #4D2C22",
"M 	c #542E21",
"N 	c #754A2D",
"O 	c #512E24",
"P 	c #603928",
"Q 	c #6B422B",
"R 	c #9C6E3E",
"S 	c #754C2D",
"T 	c #633B29",
"U 	c #26101D",
"V 	c #27121E",
"W 	c #331721",
"X 	c #774C2E",
"Y 	c #643C27",
"Z 	c #986B3C",
"` 	c #744A2C",
" .	c #5B3527",
"..	c #5A3525",
"+.	c #7A4E2E",
"@.	c #784C2D",
"#.	c #996B3D",
"$.	c #98693C",
"%.	c #492822",
"&.	c #71462C",
"*.	c #74492C",
"=.	c #764C2C",
"-.	c #764B2E",
";.	c #361C20",
">.	c #98693D",
",.	c #593326",
"'.	c #74492E",
").	c #5D3626",
"!.	c #5E3828",
"~.	c #351B20",
"{.	c #381C20",
"].	c #744B2C",
"^.	c #754A2E",
"/.	c #5C3626",
"(.	c #5F3928",
"_.	c #563225",
":.	c #633B27",
"<.	c #5E3727",
"[.	c #5D3826",
"}.	c #5F3726",
"|.	c #5C3727",
"1.	c #361B20",
"2.	c #72482D",
"3.	c #764C2E",
"4.	c #472622",
"5.	c #462521",
"6.	c #442320",
"7.	c #6D432A",
"8.	c #573325",
"9.	c #5B3525",
"0.	c #6B422A",
"a.	c #825631",
"b.	c #815530",
"c.	c #7D522F",
"d.	c #7E5330",
"e.	c #643C28",
"f.	c #815531",
"g.	c #794E2D",
"h.	c #341B20",
"i.	c #371B20",
"j.	c #825530",
"                                                                ",
"                                                                ",
"                                                                ",
"                              .                                 ",
"                                                                ",
"                                    + @ #                       ",
"                      $ %           & * = %                     ",
"                .     - ; > ,     ' ) ! ~ {   .                 ",
"                      ] ^ / ( _   : < > [                       ",
"                      } | 1 2 3 4 5 6 [                         ",
"                                7 8                             ",
"                                9 0   .                         ",
"                      .   a b c d d e a f a a                   ",
"                          a g h d i j k l m n a                 ",
"                          a o k k k k p q r s a                 ",
"                            a t u v w x y z A B                 ",
"                            j C a D E x F x G a                 ",
"                            b H f I J w r w K                   ",
"                          a L a a M p r y N O                   ",
"                          a a P Q R S y w T s a                 ",
"                a a U V W X s Y Z ` r N  ...w a                 ",
"              a +.X @.#.$.%.&.*.r F w X =.-.F ;.                ",
"              a r q N r >.%.,.'.q x ).!.%.%.%.~.                ",
"              {.%.%.].^.-.%./.(._.:.%.<.[.}.|.1.                ",
"            a 2.3.%.%.%.%.4.5.6.X 7.%.8.9.<.<.~.                ",
"            a 0.a.b.c.b.d.e.f.g.h.a i.j.a a a a                 ",
"              a a h.a a ~.a a a                                 ",
"                                                                ",
"                                                                ",
"                                                                ",
"                                                                ",
"                                                                "};
