/* XPM */
static char * exit_1(ship)_xpm[] = {
"32 32 295 2",
"  	c None",
". 	c #E8FAF9",
"+ 	c #4B5B82",
"@ 	c #95A5C4",
"# 	c #E4F9FA",
"$ 	c #E4F9F9",
"% 	c #E3F9F9",
"& 	c #8E9BBC",
"* 	c #5A6990",
"= 	c #EBFAF9",
"- 	c #E8F8F9",
"; 	c #E7F1F3",
"> 	c #637298",
", 	c #B5C2DC",
"' 	c #E5F9F9",
") 	c #E4FAF9",
"! 	c #E4FAFA",
"~ 	c #E5FAF9",
"{ 	c #B7C4DD",
"] 	c #55658C",
"^ 	c #677499",
"/ 	c #E0F4F7",
"( 	c #E4FAF8",
"_ 	c #E5FBFA",
": 	c #E5FAFA",
"< 	c #E4F9F8",
"[ 	c #BFCEE4",
"} 	c #E8F8F8",
"| 	c #98A4C3",
"1 	c #E3F8F9",
"2 	c #E3FAF9",
"3 	c #E3F7F9",
"4 	c #BAC6E0",
"5 	c #606F96",
"6 	c #A5AFC5",
"7 	c #B9C6DF",
"8 	c #E3F8FA",
"9 	c #E3FAFA",
"0 	c #E3F8F8",
"a 	c #B9C5E0",
"b 	c #606F95",
"c 	c #7783A7",
"d 	c #B9C5DF",
"e 	c #B8C5DF",
"f 	c #BAC7E0",
"g 	c #BAC7E1",
"h 	c #B7C5DF",
"i 	c #B7C4DE",
"j 	c #B4C0DA",
"k 	c #B2BCDA",
"l 	c #7F8BB0",
"m 	c #B8C3DE",
"n 	c #B7C2DC",
"o 	c #D9E8F6",
"p 	c #D5E1EE",
"q 	c #56638A",
"r 	c #59658D",
"s 	c #556289",
"t 	c #546289",
"u 	c #707FA3",
"v 	c #DFEAF5",
"w 	c #B7C2DD",
"x 	c #B6C3DC",
"y 	c #B6C2DB",
"z 	c #A0ACCA",
"A 	c #EAFAFA",
"B 	c #B4C1DD",
"C 	c #AFBBD6",
"D 	c #B7C3DD",
"E 	c #B7C3DC",
"F 	c #B6C3DD",
"G 	c #B5C1DB",
"H 	c #B6C3DE",
"I 	c #B5C3DD",
"J 	c #B6C2DD",
"K 	c #B6C2DC",
"L 	c #B5C3DC",
"M 	c #E3EEF2",
"N 	c #7180A6",
"O 	c #B7C3DF",
"P 	c #B2BDD9",
"Q 	c #B8C3DD",
"R 	c #A9B5D1",
"S 	c #161F40",
"T 	c #30416F",
"U 	c #394C7C",
"V 	c #384C7C",
"W 	c #283761",
"X 	c #151F3E",
"Y 	c #ACB8D4",
"Z 	c #B6C4DC",
"` 	c #7180A3",
" .	c #ECF8F9",
"..	c #BAC7DF",
"+.	c #E1F2FB",
"@.	c #B1BDD8",
"#.	c #15203F",
"$.	c #354A78",
"%.	c #2D4278",
"&.	c #2488E1",
"*.	c #258BE2",
"=.	c #2481DA",
"-.	c #364A7A",
";.	c #1B2648",
">.	c #A8B6D4",
",.	c #BCC7E1",
"'.	c #707EA2",
").	c #B2BFDA",
"!.	c #30416E",
"~.	c #354F8A",
"{.	c #30F5FF",
"].	c #31F6FF",
"^.	c #31F7FF",
"/.	c #374D84",
"(.	c #2A3963",
"_.	c #B2BED9",
":.	c #7584A8",
"<.	c #939FBF",
"[.	c #B4C0DB",
"}.	c #55628A",
"|.	c #8694B6",
"1.	c #364A79",
"2.	c #21BDFF",
"3.	c #31F5FF",
"4.	c #31F8FF",
"5.	c #32F7FF",
"6.	c #24D3FF",
"7.	c #334675",
"8.	c #7D8BAD",
"9.	c #B6C1DB",
"0.	c #617198",
"a.	c #8593B4",
"b.	c #46547C",
"c.	c #B1BDDA",
"d.	c #3D4972",
"e.	c #A8B4D1",
"f.	c #7F8EB0",
"g.	c #344878",
"h.	c #2FF5FF",
"i.	c #34F6FE",
"j.	c #BEFFFF",
"k.	c #BDFFFF",
"l.	c #344879",
"m.	c #7C8BAD",
"n.	c #8190B2",
"o.	c #576891",
"p.	c #4B5B83",
"q.	c #542301",
"r.	c #833A09",
"s.	c #8090B3",
"t.	c #27335A",
"u.	c #808EB3",
"v.	c #8393B4",
"w.	c #334776",
"x.	c #B7FFFF",
"y.	c #C0FFFF",
"z.	c #BFFFFF",
"A.	c #B9FFFF",
"B.	c #32F6FF",
"C.	c #344778",
"D.	c #7F8DB1",
"E.	c #808FB2",
"F.	c #33426A",
"G.	c #8291B4",
"H.	c #6D7CA3",
"I.	c #3E1800",
"J.	c #3A1500",
"K.	c #7281A7",
"L.	c #7A89AC",
"M.	c #324676",
"N.	c #30F6FF",
"O.	c #B8FFFF",
"P.	c #344677",
"Q.	c #4A5983",
"R.	c #55658D",
"S.	c #3B1907",
"T.	c #4D1F00",
"U.	c #863C0A",
"V.	c #4B1E00",
"W.	c #572401",
"X.	c #283457",
"Y.	c #42527B",
"Z.	c #7C8DB1",
"`.	c #314372",
" +	c #BBFFFF",
".+	c #324473",
"++	c #7B8AAE",
"@+	c #475780",
"#+	c #252C4D",
"$+	c #5F2702",
"%+	c #833909",
"&+	c #863B0A",
"*+	c #843A09",
"=+	c #5C2802",
"-+	c #4F2100",
";+	c #160602",
">+	c #1B2546",
",+	c #7181A6",
"'+	c #273560",
")+	c #33F6FF",
"!+	c #BCFFFF",
"~+	c #30F7FF",
"{+	c #283762",
"]+	c #707EA3",
"^+	c #151F3B",
"/+	c #552402",
"(+	c #502000",
"_+	c #4E2000",
":+	c #833908",
"<+	c #552300",
"[+	c #5F2902",
"}+	c #803808",
"|+	c #652C05",
"1+	c #39476C",
"2+	c #192343",
"3+	c #20B6FC",
"4+	c #32F5FF",
"5+	c #22C2FE",
"6+	c #1A2342",
"7+	c #354265",
"8+	c #200A02",
"9+	c #5E2802",
"0+	c #682B04",
"a+	c #512200",
"b+	c #562401",
"c+	c #863A0A",
"d+	c #4C1F00",
"e+	c #7F3808",
"f+	c #461C01",
"g+	c #411900",
"h+	c #290D00",
"i+	c #2575CC",
"j+	c #247AD3",
"k+	c #247BD4",
"l+	c #247AD2",
"m+	c #247CD4",
"n+	c #2677CE",
"o+	c #1F0A02",
"p+	c #612903",
"q+	c #753307",
"r+	c #833A08",
"s+	c #592500",
"t+	c #813908",
"u+	c #7C3706",
"v+	c #783507",
"w+	c #040612",
"x+	c #2283DD",
"y+	c #1FBDFE",
"z+	c #20B9FE",
"A+	c #20B7FD",
"B+	c #21B9FE",
"C+	c #23C1FD",
"D+	c #080817",
"E+	c #4F2201",
"F+	c #532200",
"G+	c #823A08",
"H+	c #522100",
"I+	c #843B08",
"J+	c #823909",
"K+	c #823A09",
"L+	c #381500",
"M+	c #03030C",
"N+	c #1FAAFB",
"O+	c #30F4FF",
"P+	c #2EEEFF",
"Q+	c #03040B",
"R+	c #5C2701",
"S+	c #4C1E00",
"T+	c #552400",
"U+	c #7C3707",
"V+	c #0C0404",
"W+	c #2167B8",
"X+	c #1EB9FE",
"Y+	c #30F2FF",
"Z+	c #25C9FC",
"`+	c #25A0F3",
" @	c #1A0902",
".@	c #612804",
"+@	c #813809",
"@@	c #803A0A",
"#@	c #7E3808",
"$@	c #230A00",
"%@	c #1D498C",
"&@	c #1EA9F7",
"*@	c #1FA6F6",
"=@	c #215FAF",
"-@	c #0F070B",
";@	c #5A2701",
">@	c #813A08",
",@	c #853C08",
"'@	c #4D2100",
")@	c #833B08",
"!@	c #522200",
"~@	c #572605",
"{@	c #451D03",
"                              .                                 ",
"                            . . .                               ",
"                              .                                 ",
"                          + + + + + +         .                 ",
"                        + @ # $ % # & *     = - ;               ",
"                      > , ' ) ! ~ ~ ! { ]     .                 ",
"            .       ^ / ( _ ! $ ' : : < [                       ",
"          . . }     | 1 $ ~ 2 : ! _ ) $ 3 4                     ",
"            .     5 6 7 8 % % 9 ) ! ! 0 a a b                   ",
"                  c d e f 4 9 % 9 % g h i h j +                 ",
"                k l m n o p q r s t u v w x y z +   A           ",
"                B C D E F G H I J K L x D E K x   . M .         ",
"          .   N O P Q E R S T U V W X Y Z w K K `   .           ",
"        .  .. ..+.@.F K #.$.%.&.*.=.-.;.K D , >.,.+             ",
"          .   f H '.D ).!.~.{.].^.{./.(._.E :.J f +             ",
"              <.[.}.H |.1.2.3.4.5.^.6.7.8.9.0.w a.+             ",
"              b.c.d.e.f.g.h.i.j.k.4.].l.m.n.o.i p.+             ",
"          q.r.q.s.t.u.v.w.].x.y.z.A.B.C.D.E.F.G.H.I.J.          ",
"          q.q.q.K.H.H.L.M.N.A.z.z.O.].P.` Q.H.R.S.T.I.J.        ",
"          U.V.W.X.H.Y.Z.`.N. +y.z.O.^..+++@+H.#+$+%+&+q.        ",
"          *+=+-+I.;+>+,+'+h.)+k.!+3.~+{+]+^+H./+(+_+:+I.        ",
"          q.<+[+}+|+H.1+2+3+B.B.4+N.5+6+7+8+9+0+a+q.b+J.        ",
"          q.c+d+e+f+g+h+H.i+j+k+l+m+n+H.o+p+0+0+q+q.q.J.        ",
"          r.r+s+t+_+u+v+w+x+y+z+A+B+C+D+E+F+G+0+r.H+q.J.        ",
"            I+J+K+0+J.L+M+N+{.O+O+3.P+Q+d+R+S+T+I+I.q.J.        ",
"            q.r.0+0+0+U+V+W+X+O+Y+Z+`+ @.@G+e+0+0++@J.          ",
"            q.q.I.0+0+@@#@$@%@&@*@=@-@;@G+>@0+0+0+,@q.J.        ",
"              J.q.I.I.K+;@0+'@0+[+)@!@0+0+0+0+0+I.I.            ",
"                J.J.I.I.I.0+0+0+~@K+{@q.q.I.I.I.I.              ",
"                    I.J.q.J.J.q.q.J.J.q.J.q.I.                  ",
"                                                                ",
"                                                                "};
