/* XPM */
static char * floor_xpm[] = {
"32 32 537 2",
"  	c #2A2937",
". 	c #14131C",
"+ 	c #322F3E",
"@ 	c #14121B",
"# 	c #1E1D28",
"$ 	c #272734",
"% 	c #252331",
"& 	c #1F1C2B",
"* 	c #2F2C3B",
"= 	c #16141E",
"- 	c #2B2A37",
"; 	c #272533",
"> 	c #2C2937",
", 	c #1F1E29",
"' 	c #18171F",
") 	c #12111C",
"! 	c #131019",
"~ 	c #15141D",
"{ 	c #292835",
"] 	c #15131D",
"^ 	c #2D2A37",
"/ 	c #181621",
"( 	c #12101B",
"_ 	c #282633",
": 	c #2B2937",
"< 	c #282735",
"[ 	c #14141C",
"} 	c #292836",
"| 	c #14131B",
"1 	c #2A2936",
"2 	c #2F2D3B",
"3 	c #2E2C3A",
"4 	c #262532",
"5 	c #282733",
"6 	c #2A2935",
"7 	c #13121B",
"8 	c #2E2C39",
"9 	c #272633",
"0 	c #181620",
"a 	c #14121A",
"b 	c #2B2A38",
"c 	c #2A2836",
"d 	c #282734",
"e 	c #1A192B",
"f 	c #393645",
"g 	c #272532",
"h 	c #272632",
"i 	c #13131C",
"j 	c #302E3C",
"k 	c #000001",
"l 	c #14131A",
"m 	c #252333",
"n 	c #292735",
"o 	c #17161F",
"p 	c #343443",
"q 	c #2E2D3A",
"r 	c #0F0E13",
"s 	c #201E2A",
"t 	c #1F1D28",
"u 	c #32303F",
"v 	c #252432",
"w 	c #1C1B26",
"x 	c #312F3D",
"y 	c #282634",
"z 	c #141319",
"A 	c #1F1D29",
"B 	c #242230",
"C 	c #0E0C11",
"D 	c #32313F",
"E 	c #16151E",
"F 	c #13131A",
"G 	c #050407",
"H 	c #353242",
"I 	c #2E2C3B",
"J 	c #31303E",
"K 	c #13111A",
"L 	c #17151F",
"M 	c #15131C",
"N 	c #353341",
"O 	c #2C2B38",
"P 	c #22222D",
"Q 	c #1A1924",
"R 	c #16131C",
"S 	c #1B1823",
"T 	c #363442",
"U 	c #17151D",
"V 	c #1C1B27",
"W 	c #211F2F",
"X 	c #45424F",
"Y 	c #2B2B38",
"Z 	c #201F2D",
"` 	c #1B1926",
" .	c #010102",
"..	c #12131F",
"+.	c #27397B",
"@.	c #1A6D7A",
"#.	c #2B5765",
"$.	c #201E32",
"%.	c #343240",
"&.	c #262531",
"*.	c #121018",
"=.	c #242330",
"-.	c #0F0E14",
";.	c #15151C",
">.	c #15131B",
",.	c #292734",
"'.	c #0B0B11",
").	c #000000",
"!.	c #030306",
"~.	c #2D2B39",
"{.	c #2C2A38",
"].	c #16151F",
"^.	c #211E3E",
"/.	c #476F5A",
"(.	c #557362",
"_.	c #262453",
":.	c #333343",
"<.	c #24232F",
"[.	c #252431",
"}.	c #272534",
"|.	c #333040",
"1.	c #181623",
"2.	c #373546",
"3.	c #3E3C49",
"4.	c #292837",
"5.	c #171520",
"6.	c #282835",
"7.	c #22222E",
"8.	c #040406",
"9.	c #222130",
"0.	c #1B1924",
"a.	c #16141D",
"b.	c #010106",
"c.	c #1C152B",
"d.	c #12121A",
"e.	c #262533",
"f.	c #302E3D",
"g.	c #1E1D29",
"h.	c #161526",
"i.	c #141220",
"j.	c #2D2A39",
"k.	c #23222F",
"l.	c #16141C",
"m.	c #272530",
"n.	c #363543",
"o.	c #0C0C11",
"p.	c #191834",
"q.	c #1B1B2D",
"r.	c #2D284B",
"s.	c #221C3B",
"t.	c #0A0B11",
"u.	c #16161E",
"v.	c #2F2E3B",
"w.	c #2D2C39",
"x.	c #2C2A37",
"y.	c #2A2735",
"z.	c #23212E",
"A.	c #32303D",
"B.	c #272733",
"C.	c #191722",
"D.	c #2A2734",
"E.	c #292834",
"F.	c #282635",
"G.	c #3D3B48",
"H.	c #252335",
"I.	c #2B2A3C",
"J.	c #111019",
"K.	c #0C0B11",
"L.	c #16161F",
"M.	c #3A3947",
"N.	c #23212F",
"O.	c #12111B",
"P.	c #17141F",
"Q.	c #0F0E15",
"R.	c #08080E",
"S.	c #290C46",
"T.	c #2E226E",
"U.	c #284282",
"V.	c #2B5C58",
"W.	c #1E516F",
"X.	c #1F4C75",
"Y.	c #2D3A7F",
"Z.	c #161323",
"`.	c #22212E",
" +	c #2D2C3A",
".+	c #403E4B",
"++	c #1D1C28",
"@+	c #313040",
"#+	c #101018",
"$+	c #45434E",
"%+	c #1D1D2B",
"&+	c #2B2936",
"*+	c #1C1A26",
"=+	c #4A4755",
"-+	c #6B7155",
";+	c #526149",
">+	c #685A57",
",+	c #5D574D",
"'+	c #54455A",
")+	c #447260",
"!+	c #374D37",
"~+	c #22317C",
"{+	c #302D3B",
"]+	c #22212D",
"^+	c #15141B",
"/+	c #3D3A47",
"(+	c #16131D",
"_+	c #1E1C28",
":+	c #101016",
"<+	c #3D3C4A",
"[+	c #33303F",
"}+	c #13121C",
"|+	c #292736",
"1+	c #181722",
"2+	c #252332",
"3+	c #0F0E16",
"4+	c #38314E",
"5+	c #556949",
"6+	c #443E57",
"7+	c #614E62",
"8+	c #4C4655",
"9+	c #534B5F",
"0+	c #4E574F",
"a+	c #386A5D",
"b+	c #29355D",
"c+	c #24203D",
"d+	c #2F2C3A",
"e+	c #0B0B10",
"f+	c #06070C",
"g+	c #06060B",
"h+	c #1B1A25",
"i+	c #2F2D3D",
"j+	c #2C2A3A",
"k+	c #191822",
"l+	c #15141C",
"m+	c #1F1E2A",
"n+	c #0D0B11",
"o+	c #1E1E28",
"p+	c #1F576D",
"q+	c #506A4C",
"r+	c #4D4854",
"s+	c #6A594F",
"t+	c #332B4C",
"u+	c #425765",
"v+	c #2F6360",
"w+	c #205A7B",
"x+	c #233E84",
"y+	c #101017",
"z+	c #1E1E2A",
"A+	c #15121C",
"B+	c #121118",
"C+	c #2C2B39",
"D+	c #282834",
"E+	c #201E2B",
"F+	c #292936",
"G+	c #2A2835",
"H+	c #282534",
"I+	c #2E2C3C",
"J+	c #272631",
"K+	c #1B1A2A",
"L+	c #060507",
"M+	c #27255F",
"N+	c #276E6D",
"O+	c #2F5741",
"P+	c #191D39",
"Q+	c #0B0B14",
"R+	c #05040C",
"S+	c #0C0D16",
"T+	c #0C0B15",
"U+	c #333241",
"V+	c #17151E",
"W+	c #262632",
"X+	c #252330",
"Y+	c #272634",
"Z+	c #16151D",
"`+	c #1F1D2A",
" @	c #010101",
".@	c #0D0C13",
"+@	c #3C394C",
"@@	c #2E1260",
"#@	c #201631",
"$@	c #151423",
"%@	c #353440",
"&@	c #353342",
"*@	c #34323F",
"=@	c #403F4B",
"-@	c #0E0C13",
";@	c #14121C",
">@	c #343343",
",@	c #272432",
"'@	c #1A1824",
")@	c #383747",
"!@	c #25212F",
"~@	c #2F2E3C",
"{@	c #3A3747",
"]@	c #010001",
"^@	c #201F2C",
"/@	c #100F16",
"(@	c #1E1C29",
"_@	c #242333",
":@	c #040407",
"<@	c #373643",
"[@	c #07060A",
"}@	c #131219",
"|@	c #211E2B",
"1@	c #1B1925",
"2@	c #2E2B39",
"3@	c #31303D",
"4@	c #15131A",
"5@	c #100F18",
"6@	c #2F2E3D",
"7@	c #060609",
"8@	c #030406",
"9@	c #211F2B",
"0@	c #262431",
"a@	c #33313F",
"b@	c #2D2B38",
"c@	c #3E3D49",
"d@	c #100F1B",
"e@	c #2A2A37",
"f@	c #1C1A27",
"g@	c #2B2938",
"h@	c #2B2B3A",
"i@	c #2C2B37",
"j@	c #343139",
"k@	c #20212B",
"l@	c #252531",
"m@	c #1F1E2B",
"n@	c #1E1C25",
"o@	c #25242D",
"p@	c #22212C",
"q@	c #201F2B",
"r@	c #23222C",
"s@	c #07070E",
"t@	c #25252F",
"u@	c #2F2F3D",
"v@	c #171620",
"w@	c #252230",
"x@	c #282533",
"y@	c #1E1D2D",
"z@	c #07090D",
"A@	c #1B1B26",
"B@	c #131119",
"C@	c #3C3A49",
"D@	c #2F2E3E",
"E@	c #1F1C29",
"F@	c #191823",
"G@	c #403E4D",
"H@	c #393745",
"I@	c #020304",
"J@	c #0E0E18",
"K@	c #413E4A",
"L@	c #24222F",
"M@	c #110F15",
"N@	c #15121B",
"O@	c #010104",
"P@	c #206A66",
"Q@	c #236963",
"R@	c #322E67",
"S@	c #14141F",
"T@	c #0D0D14",
"U@	c #1C1C28",
"V@	c #2A2838",
"W@	c #010203",
"X@	c #1D1C27",
"Y@	c #131118",
"Z@	c #4B4959",
"`@	c #010002",
" #	c #4C4958",
".#	c #31303F",
"+#	c #2F2D3A",
"@#	c #4F4C59",
"##	c #393647",
"$#	c #3A3849",
"%#	c #20407A",
"&#	c #223876",
"*#	c #255388",
"=#	c #1F458A",
"-#	c #030205",
";#	c #0A090E",
">#	c #111017",
",#	c #0E0C12",
"'#	c #312F3C",
")#	c #13131B",
"!#	c #373444",
"~#	c #33313E",
"{#	c #100E15",
"]#	c #454250",
"^#	c #07070A",
"/#	c #2E2E3B",
"(#	c #2E2D3C",
"_#	c #0A0A0D",
":#	c #2C2B3A",
"<#	c #343243",
"[#	c #010305",
"}#	c #1F1230",
"|#	c #07060F",
"1#	c #0A0913",
"2#	c #302E3E",
"3#	c #33323F",
"4#	c #262432",
"5#	c #2F2D3C",
"6#	c #232330",
"7#	c #1C1A25",
"8#	c #3A3845",
"9#	c #292635",
"0#	c #0D0C12",
"a#	c #413F4A",
"b#	c #1A1722",
"c#	c #25232F",
"d#	c #17141E",
"e#	c #16131B",
"f#	c #22202C",
"g#	c #111018",
"h#	c #2C2939",
"i#	c #252532",
"j#	c #2B2837",
"k#	c #2F2C3C",
"l#	c #22202E",
"m#	c #131218",
"n#	c #100E13",
"o#	c #0D0D11",
"p#	c #2A2837",
"q#	c #2C2837",
"r#	c #262433",
"s#	c #2F2F3B",
"t#	c #21202D",
"u#	c #181721",
"v#	c #020204",
"w#	c #2E2B3A",
"x#	c #252430",
"y#	c #1D1C2A",
"z#	c #2C2A39",
"A#	c #302D3D",
"B#	c #000102",
"C#	c #2A2834",
"D#	c #0D0A0E",
"E#	c #050409",
"F#	c #242331",
"G#	c #161420",
"H#	c #1C1924",
"I#	c #1E1C2A",
"J#	c #42404C",
"K#	c #16141F",
"L#	c #32303E",
"M#	c #484557",
"N#	c #121016",
"O#	c #1D1D28",
"P#	c #08090E",
"Q#	c #111116",
"R#	c #050509",
"S#	c #0D0C15",
"T#	c #100F15",
"U#	c #2B2A3B",
"V#	c #17151C",
"W#	c #242432",
"X#	c #2F2C3D",
"Y#	c #262331",
"Z#	c #201E2C",
"`#	c #1A1823",
" $	c #1C1D29",
".$	c #383744",
"+$	c #010103",
"@$	c #1D1C26",
"#$	c #292937",
"$$	c #05050A",
"%$	c #0C0B12",
"&$	c #2A2938",
"*$	c #1E1D27",
"=$	c #333240",
"-$	c #0B0B16",
";$	c #2D2B37",
">$	c #302C3A",
",$	c #171621",
"'$	c #161520",
")$	c #211F2C",
"!$	c #0D0C14",
"~$	c #05040B",
"{$	c #0D0C16",
"]$	c #412780",
"^$	c #1E1B39",
"/$	c #13111F",
"($	c #272535",
"_$	c #211F2D",
":$	c #121019",
"<$	c #1A1923",
"[$	c #1D1B27",
"}$	c #3B3A49",
"|$	c #2D2B3A",
"1$	c #121017",
"2$	c #333141",
"3$	c #040306",
"4$	c #2D1F6D",
"5$	c #32726A",
"6$	c #375B68",
"7$	c #24457B",
"8$	c #0E0F19",
"9$	c #2B2A39",
"0$	c #010202",
"a$	c #23212D",
"b$	c #2D293A",
"c$	c #21212B",
"d$	c #0F0F15",
"e$	c #1B1923",
"f$	c #393747",
"g$	c #1A182E",
"h$	c #090915",
"i$	c #2E245D",
"j$	c #070812",
"k$	c #090B12",
"l$	c #0F0F17",
"m$	c #272531",
"n$	c #10101C",
"o$	c #343340",
"p$	c #292733",
"q$	c #020104",
"r$	c #201E29",
"s$	c #24212F",
"t$	c #373644",
"u$	c #232230",
"v$	c #272433",
"w$	c #191720",
"x$	c #3A3746",
"y$	c #13121A",
"z$	c #1B1A24",
"A$	c #292633",
"B$	c #312F3F",
"C$	c #1F1E26",
"D$	c #11101A",
"E$	c #0F0E12",
"F$	c #0C0B0F",
"G$	c #3D3C49",
"H$	c #484553",
"I$	c #0B0A11",
"J$	c #282632",
"K$	c #252433",
"L$	c #393748",
"  . + @ # $ % & * = - ; > , ' ) ! ~ ; { ] ^ / ( _ : < @ [ } | } ",
"1 2 3 3 4 5 6 7 8 9 0 a b c d e f g h i 6 j k = 1 l m n - _ o ; ",
"p q r s t 1 } u v d w x y z A B C D E F v G H g ; I J K L J = M ",
"N 1 } { O w P Q R S 1 T } U V W X Y Z `  .b < 1 ..+.@.#.$.%.&.9 ",
"} @ *.9 g C =.-.q ;.>.; % ,.'.3 ).) !.~.{ {.g ].^./.(._.:.<.[.d ",
"y }.|.=.{ 1.; 2.. 3.4.9 5.M 6.7.~ 8.9.0.@ a.d x E b.c.d.e.f.g.h.",
"i.j.k.l.m.n.o.p.q.r.s.t.u.v.w.x.y.z.A.B.C.D.E.F.G.H.I.J.K.L.M.N.",
").O.P.Q.R.S.T.U.V.W.X.Y.Z.`. +_ B .+++y f.{ w.@+#+$+%+&+%.).9.L ",
"*+=+- [ r -+;+>+,+'+)+!+~+k {+]+^+=./+k (+_+:+<+[+E }+|+2 1+N B ",
"c c _+2+3+4+5+6+7+8+9+0+a+b+c+q d+: d e+f+g+h+E.y i+j+y e.g k+l+",
"x.m+9 n+o+p+q+r+s+t+u+v+w+x+y+z+d A+).[ >.B+C+D+n E+F+n G+- *+. ",
"H+I+J+N.K+L+M+N+O+P+Q+R+S+T+U+V+@ W+  X+c Y+3 [.Z+_ g `+G+y d  +",
"C ;  @.@,.+@8.@@#@ @$@V+%@y+2+O &@*@=@-@3 ;@q >@_ ,@y+'@)@y.!@~@",
"{@{@!.]@^@/@(@_@:@, <@[@}@D+|@l+F.).1@| O c ~@k+n 2@Q.3@4@,.G+4 ",
"5@-@6@g 7@8@9@{ 0@} a@q G+< b@;.v c@= D+5 x ^+< d@d e@9 {..   `+",
"f@g@h@{ i@j@k@&@*+l@m@n@~.o G+{.e+o@p@q@G+= 1 ~@r@s@t@&+h c ~.{ ",
"[.c ,.O y ,.0@k  .c k.u@0@% M v@g+n / O w@x@'@C+y@:@z@g+z.A@]+; ",
"b 2 B@C@z.D@Z 3+E@F@G.G@H@I@J@K@L@).M@~ N@,.%.O@P@Q@R@S@T@T e.U@",
"1 ~@V@v.d W@X@++Z Y@Z@`@ #.#W+r +#{ @#,.9 ##$#%#&#*#=#-#;#c 5 . ",
"{ >#,#'#)#!#~#{#C+F.]#^#/#g@c h h (#] _#c :#<#[#}#|#1#2#3#C+: % ",
"  q@} j 4#5#6#7#8#9#0#a#o b#>.c#H@d =  @A d#@ n m@R . @ e#b@g f#",
"x@g#r h#i#j#1 ,.4#k#:@l#X+m#M@d <.: n#o#z.{ x.F@0 p#4.q#c r#s#M@",
",.G.1   t#n.; ,#u#).k.v#p#w#++,.h+x#a y#`@g#n z#~@A#h#x } B#k A ",
"C#D#y j#E#!.: 0#]+F#F@,.g [._ G#0#{#H#I#0@A J#K#` L#,.:@M#N#] O#",
"r#E P#Q#5.z#R#S#T#=.U#2.V#N.v@W#X#Y#Z#`#g u :@ $1 .$+$@$e@y #$&+",
"$$%$&$_ *$`+=$-$F#%.n K#,.d 0 3 n ~ N ;$>$c Y+p#m@k ,$< 9 9 p#C#",
"X+q@d '$E+&$)$!$~${$]$^$/$(${ { $ _$; }.:$<$x.z.[$}$1 U g@: B@|$",
"M =.4 a@; 1$. 2$3$4$5$6$7$8$7 M 1   9$% c . ~@J E.0$5#E+a$v@{ 1 ",
"q b$7 l c$d$e$f$g$h$i$j$k$l$; { d o < x j#  { @ v#1 b@9 m$&+Z+&+",
"0@: O  +C+{ B+x ).h+n$C+d J.o$C+; O#; p$^+q$o y r$s$x.>.v._ 9 9 ",
"0@t#B t$_ w.x@u$v$E | 9 w$= W@.$a.| {#o#x$/#>.} { > i+c y$z$E d ",
"A$Y@B$*+C$D$<$z#4 ,@E$M ,.4#F$]@G$  k H$< 9$y I$J$Z+3@K$0@+#L${ "};
