/* XPM */
static char * player_xpm[] = {
"32 32 101 2",
"  	c None",
". 	c #343F55",
"+ 	c #343F56",
"@ 	c #344056",
"# 	c #343F54",
"$ 	c #333F55",
"% 	c #343E55",
"& 	c #A1ACB9",
"* 	c #A0ACB7",
"= 	c #A1ADB8",
"- 	c #A0ADB9",
"; 	c #303B51",
"> 	c #333D53",
", 	c #A1ADB9",
"' 	c #A0ABB8",
") 	c #9FACB7",
"! 	c #9FADB8",
"~ 	c #333F53",
"{ 	c #1A2030",
"] 	c #354055",
"^ 	c #9EACB7",
"/ 	c #323C51",
"( 	c #333D54",
"_ 	c #A0ACB9",
": 	c #191F2F",
"< 	c #A0ABB7",
"[ 	c #A0ADB8",
"} 	c #313D54",
"| 	c #101523",
"1 	c #1F2637",
"2 	c #A0ACB8",
"3 	c #303C52",
"4 	c #1F2636",
"5 	c #101421",
"6 	c #313C53",
"7 	c #9FABB8",
"8 	c #344055",
"9 	c #313B50",
"0 	c #9FACB8",
"a 	c #323D54",
"b 	c #333D55",
"c 	c #9FABB6",
"d 	c #333F54",
"e 	c #9FAAB7",
"f 	c #333F56",
"g 	c #343E54",
"h 	c #333E55",
"i 	c #323E53",
"j 	c #323E55",
"k 	c #323F54",
"l 	c #323E54",
"m 	c #313D53",
"n 	c #323D53",
"o 	c #EBAE55",
"p 	c #EBAE56",
"q 	c #333E54",
"r 	c #ECAE55",
"s 	c #ECAF55",
"t 	c #ECAF56",
"u 	c #EBAF55",
"v 	c #37435A",
"w 	c #37425A",
"x 	c #ECAE56",
"y 	c #D39648",
"z 	c #EBAE54",
"A 	c #CB8E46",
"B 	c #364259",
"C 	c #171E2C",
"D 	c #323C55",
"E 	c #323D55",
"F 	c #313D55",
"G 	c #181E2E",
"H 	c #323F55",
"I 	c #EAAE54",
"J 	c #D4974A",
"K 	c #EBAD56",
"L 	c #EBAF56",
"M 	c #D5974A",
"N 	c #D3974A",
"O 	c #D5964A",
"P 	c #191F2E",
"Q 	c #1F2839",
"R 	c #D49649",
"S 	c #ECAD55",
"T 	c #EBAD55",
"U 	c #EDAE56",
"V 	c #D59749",
"W 	c #313C54",
"X 	c #181F2E",
"Y 	c #343D56",
"Z 	c #1F2738",
"` 	c #D5974B",
" .	c #D6974B",
"..	c #D5984B",
"+.	c #D6984A",
"@.	c #D6984B",
"#.	c #D6974A",
"$.	c #D5984C",
"%.	c #202738",
"&.	c #333E53",
"*.	c #000000",
"                                                                ",
"                                                                ",
"                                                                ",
"                                                                ",
"                                                                ",
"                      . . . +     . @ # $                       ",
"                    % & * = - ; > , ' ) ! ~                     ",
"                  $ - ' { ] ^ / ( _ ] : < [ }                   ",
"                  . , # | 1 2 3 > 2 4 5 . , 6                   ",
"                  $ 2 7 8 2 2 9 6 * 0 8 0 0 a                   ",
"                    b c 7 ) d 9 9 $ 0 < e d                     ",
"                      % f g   9 9   $ 8 h                       ",
"                              9 9                               ",
"                  i j h h k l 9 9 m $ h h j n                   ",
"                  ~ o p p p b q h j r p s r q                   ",
"                  g t s s t b q ( q u o s r l                   ",
"              v w h x y s z p o p u s t A t h v B               ",
"              h C q D q h E F E F E b E E E l G H               ",
"            $ q   h u I o u z o r r o o z o q   H h             ",
"            $ q   h t J s t x r K p L s M x h   h $             ",
"            $ .   n o N x x x r r o x x O u j   q $             ",
"          $ % P Q d s R r r S o T o r U V t k W X d .           ",
"          H Y   Z h ` M  ...+. .@.#.+.$...#.q h   h $           ",
"          h q   %.&.q E h l l h l i ( ( l > k %   % h           ",
"                  &.&.&.&.&.        &.&.&.&.&.                  ",
"                  &.*.*.*.&.        &.*.*.*.&.                  ",
"                  &.*.*.*.&.        &.*.*.*.&.                  ",
"                                                                ",
"                                                                ",
"                                                                ",
"                                                                ",
"                                                                "};
