/* XPM */
static char * wall_xpm[] = {
"32 32 259 2",
"  	c None",
". 	c #392122",
"+ 	c #382122",
"@ 	c #382022",
"# 	c #382225",
"$ 	c #392223",
"% 	c #92553A",
"& 	c #3B2323",
"* 	c #3B2325",
"= 	c #3A2324",
"- 	c #3C2424",
"; 	c #3B2324",
"> 	c #3B2424",
", 	c #95573B",
"' 	c #6E655F",
") 	c #96583B",
"! 	c #372022",
"~ 	c #1F1216",
"{ 	c #392123",
"] 	c #382123",
"^ 	c #3B2123",
"/ 	c #3A2123",
"( 	c #733A2F",
"_ 	c #70382E",
": 	c #CA7542",
"< 	c #CC7643",
"[ 	c #CB7643",
"} 	c #95573A",
"| 	c #372021",
"1 	c #523F38",
"2 	c #392323",
"3 	c #3B2224",
"4 	c #6E645D",
"5 	c #756D65",
"6 	c #392222",
"7 	c #372122",
"8 	c #2E1B1D",
"9 	c #91553A",
"0 	c #534039",
"a 	c #2F1B1D",
"b 	c #6B362E",
"c 	c #6E362D",
"d 	c #6F372D",
"e 	c #C76F40",
"f 	c #9A5A3B",
"g 	c #9A5B3B",
"h 	c #95583A",
"i 	c #C76E3F",
"j 	c #70372E",
"k 	c #985639",
"l 	c #9B593B",
"m 	c #A3603D",
"n 	c #51403C",
"o 	c #371F21",
"p 	c #7A3B2F",
"q 	c #7A3C2F",
"r 	c #6E352D",
"s 	c #2D1A20",
"t 	c #D87D43",
"u 	c #A7623E",
"v 	c #A5613D",
"w 	c #955739",
"x 	c #D57A41",
"y 	c #2C1A20",
"z 	c #7D3D30",
"A 	c #311C20",
"B 	c #9C5B3A",
"C 	c #9C583A",
"D 	c #70372D",
"E 	c #523E39",
"F 	c #73392E",
"G 	c #97583A",
"H 	c #935539",
"I 	c #392023",
"J 	c #94573A",
"K 	c #93563A",
"L 	c #301F22",
"M 	c #6F372E",
"N 	c #392124",
"O 	c #371F22",
"P 	c #60504C",
"Q 	c #523E3A",
"R 	c #4E3A34",
"S 	c #351E21",
"T 	c #C87340",
"U 	c #945739",
"V 	c #381F21",
"W 	c #70382D",
"X 	c #362021",
"Y 	c #955539",
"Z 	c #925439",
"` 	c #A15F3D",
" .	c #382124",
"..	c #6D645D",
"+.	c #94583A",
"@.	c #6C635D",
"#.	c #91563A",
"$.	c #915539",
"%.	c #352022",
"&.	c #94573B",
"*.	c #6F392D",
"=.	c #382021",
"-.	c #70392E",
";.	c #935639",
">.	c #6C635C",
",.	c #756D66",
"'.	c #70382F",
").	c #3A2224",
"!.	c #362122",
"~.	c #56433D",
"{.	c #392224",
"].	c #6F362E",
"^.	c #3B2223",
"/.	c #71392F",
"(.	c #95583C",
"_.	c #96593C",
":.	c #95583B",
"<.	c #392022",
"[.	c #382023",
"}.	c #312023",
"|.	c #71392E",
"1.	c #3A2225",
"2.	c #70392F",
"3.	c #94583B",
"4.	c #90543A",
"5.	c #723A2F",
"6.	c #97593B",
"7.	c #743B30",
"8.	c #975A3C",
"9.	c #97593C",
"0.	c #A15D3D",
"a.	c #733B31",
"b.	c #3C2525",
"c.	c #372023",
"d.	c #6E372E",
"e.	c #372123",
"f.	c #96573B",
"g.	c #CA7541",
"h.	c #C57241",
"i.	c #C97341",
"j.	c #291A21",
"k.	c #94563A",
"l.	c #71372D",
"m.	c #C87441",
"n.	c #965739",
"o.	c #97583B",
"p.	c #985A3B",
"q.	c #C77441",
"r.	c #925539",
"s.	c #6E372C",
"t.	c #56443C",
"u.	c #54423B",
"v.	c #CA7440",
"w.	c #2A1A20",
"x.	c #945638",
"y.	c #362022",
"z.	c #6D352C",
"A.	c #CE7742",
"B.	c #96593A",
"C.	c #CD7640",
"D.	c #CA7540",
"E.	c #3D2324",
"F.	c #58453E",
"G.	c #57443D",
"H.	c #CD7740",
"I.	c #98593A",
"J.	c #3D2325",
"K.	c #301D22",
"L.	c #C97442",
"M.	c #93553A",
"N.	c #915437",
"O.	c #96573A",
"P.	c #C87542",
"Q.	c #96583A",
"R.	c #382223",
"S.	c #533F3A",
"T.	c #C97542",
"U.	c #94563B",
"V.	c #362023",
"W.	c #3A2223",
"X.	c #59453F",
"Y.	c #71372E",
"Z.	c #392121",
"`.	c #70372F",
" +	c #71382E",
".+	c #72392F",
"++	c #773A30",
"@+	c #723A30",
"#+	c #3A2323",
"$+	c #381F22",
"%+	c #92563A",
"&+	c #945539",
"*+	c #C97441",
"=+	c #361F22",
"-+	c #C77240",
";+	c #93573A",
">+	c #925538",
",+	c #361F21",
"'+	c #54403B",
")+	c #CB7540",
"!+	c #C67340",
"~+	c #925639",
"{+	c #C6723F",
"]+	c #915439",
"^+	c #6D352B",
"/+	c #6E362C",
"(+	c #6C352B",
"_+	c #382224",
":+	c #3A2122",
"<+	c #C67341",
"[+	c #6F372C",
"}+	c #54413B",
"|+	c #895239",
"1+	c #54413A",
"2+	c #95563B",
"3+	c #392024",
"4+	c #8D5338",
"5+	c #53403A",
"6+	c #CA7441",
"7+	c #D1773E",
"8+	c #6D635D",
"9+	c #95573C",
"0+	c #6C352D",
"a+	c #55413B",
"b+	c #72382D",
"c+	c #CB7543",
"d+	c #93583A",
"e+	c #9D5A3B",
"f+	c #55423C",
"g+	c #71382F",
"h+	c #92563B",
"i+	c #3C2224",
"j+	c #96583C",
"k+	c #793D32",
"l+	c #55413A",
"m+	c #98593B",
"n+	c #513E39",
"o+	c #54433B",
"p+	c #351E20",
"q+	c #7A3D30",
"r+	c #965A3B",
"s+	c #793B2E",
"t+	c #352021",
"u+	c #985B3B",
"v+	c #773B2E",
"w+	c #5A473E",
"x+	c #9D5D3C",
"y+	c #9E5B3B",
"z+	c #9B5B3A",
"A+	c #945639",
"B+	c #5A453D",
"C+	c #55403A",
"D+	c #351E22",
"E+	c #6F362D",
"F+	c #73382F",
"G+	c #513F39",
"H+	c #53413B",
"I+	c #96593B",
"J+	c #281719",
"                                                                ",
"                                                                ",
"                                                                ",
"                                                                ",
"                        . +             . . @                   ",
"                    # $ % & * = - ; >   , ' ) ! ~               ",
"              { ]   ^ / ( _ { : < [ } | 1 2 3 4 5 6 7           ",
"            8 9 0 a b c d ^ e f f g h i + j ] k l _ /           ",
"            | m n o p q r s t } u v w x y z A B C D {           ",
"            { + } E . ! F G G H I . J J K ! j @ L M N           ",
"            + o O P Q R S T U V W d X Y Z X | } ` | +           ",
"           ...+.@.X #.$.%.K &.*.@ =.-.;.d @ E >.,.| '.).        ",
"          !.~.{.{.].^.$ ] /.(.J _.:.$._ 7 <.[.$ }.|.-.=         ",
"          {.1.2.; |.3.4.2.2 = 5.6.3.7.; {.8.9.9.0.{ a.b.        ",
"      c.[.d.e.! f.g.: h.J :.@ ! ! ! @ ! i.G O O j.k..           ",
"      + / l.o H m.n.o.p.g.q.r.s.=.t.u.! v.n.S O w.x.]           ",
"      y.N z.^ } A.} f.B.C.D.G F E.F.G.[.H.I.J.& K.k..           ",
"          y.} L.U k.M.N.! O.P.Q.K R.@ + S.T.k.U.K K { [.        ",
"          V.[ } , k.W.+ c.] } k.{ X.&.Y.Z.`. +.+++! @+#+        ",
"      $+c.%+;.&+*+V.e.! =+m.r.@ O -+;+>+d I [.<.O ,+'+{         ",
"    ] )+!+r.~+{ $.{+).{.K ]+D =.r.r.7 r.]+T K j ^+/+o (+Z.      ",
"    _+U U.;+:++ @ J *+<+$.[+$+/+K + + { + }+;+K |+D.1+[.!       ",
"      { ).&.2+3++ ;+U.4+S.] 5+U.:.J ;. .e.] ! 6+7+8++ {.        ",
"          @ ) ) 9+;.F 0+] 6 $ ] a+b+} c+d+<.B.) e+f+{ W.        ",
"            $ g+h+_ i++ =.j+k+Y.@ $ l+#.} m+k.n+o+]             ",
"            p+q+r+s+{ t+! u+:.v+I ! w+x+y+z+A+B+C+D+            ",
"              :+E+E.    3 F+M.W.{ $ ).$ G+H+I+3 J+              ",
"              { ]         { ]         $ { R.6                   ",
"                                                                ",
"                                                                ",
"                                                                ",
"                                                                "};
